<?xml version="1.0" encoding="utf-8"?>
<!-- Generator: Adobe Illustrator 17.1.0, SVG Export Plug-In . SVG Version: 6.00 Build 0)  -->
<!DOCTYPE svg PUBLIC "-//W3C//DTD SVG 1.1//EN" "http://www.w3.org/Graphics/SVG/1.1/DTD/svg11.dtd">
<svg version="1.1" id="Layer_1" xmlns="http://www.w3.org/2000/svg" xmlns:xlink="http://www.w3.org/1999/xlink" x="0px" y="0px"
	 viewBox="0 0 94.967 66.858" enable-background="new 0 0 94.967 66.858" xml:space="preserve">
<g>
	<path fill="#FFFFFF" d="M2,30.839c0,3.883,2.839,7.106,6.548,7.724c1.059-1.658,2.594-2.982,4.419-3.766V23.655
		C12.008,23.236,10.951,23,9.839,23C5.517,23,2,26.517,2,30.839z"/>
	<path fill="#FFFFFF" d="M27.653,9.336c0.009,0.168,0.026,0.333,0.026,0.503c0,0.51-0.051,1.008-0.126,1.497h52.543l2.813-1.467
		c-0.602-0.345-1.262-0.533-1.941-0.533H27.653z"/>
	<path fill="#FFFFFF" d="M14.967,34.184C15.574,34.067,16.199,34,16.839,34c0.025,0,0.048,0.003,0.073,0.004
		c0.018-0.014,0.036-0.027,0.055-0.041V19.635c-0.689-0.061-1.359-0.19-2-0.386V34.184z"/>
	<path fill="#FFFFFF" d="M10,9.839c0,4.028,3.054,7.352,6.967,7.788v-3.17c0-1.721,1.4-3.122,3.122-3.122h5.443
		c0.094-0.485,0.147-0.985,0.147-1.497C25.679,5.517,22.162,2,17.839,2S10,5.517,10,9.839z"/>
	<path fill="#FFFFFF" d="M20.088,13.336c-0.619,0-1.122,0.503-1.122,1.122v19.781c0.698,0.155,1.366,0.387,2,0.682V18.458
		c0-1.721,1.4-3.122,3.122-3.122h60.007l2.813-1.467c-0.602-0.345-1.262-0.533-1.941-0.533H20.088z"/>
	<path fill="#A4BDE3" d="M91.845,15.336h-7.749H24.088c-1.721,0-3.122,1.4-3.122,3.122V34.92c-0.634-0.295-1.302-0.527-2-0.682
		V14.458c0-0.619,0.503-1.122,1.122-1.122h64.878c0.679,0,1.34,0.188,1.941,0.533c0.145,0.083,0.289,0.167,0.426,0.269
		c0.443,0.33,1.07,0.238,1.399-0.206c0.329-0.443,0.237-1.069-0.206-1.399c-1.053-0.784-2.284-1.198-3.561-1.198h-4.871H27.552
		c0.075-0.49,0.126-0.987,0.126-1.497c0-0.17-0.017-0.335-0.026-0.503h53.314c0.679,0,1.34,0.188,1.941,0.533
		c0.145,0.083,0.289,0.167,0.426,0.269c0.443,0.33,1.07,0.238,1.399-0.206c0.329-0.443,0.237-1.069-0.206-1.399
		c-1.053-0.784-2.284-1.198-3.561-1.198H27.344C26.232,3.122,22.398,0,17.839,0C12.414,0,8,4.414,8,9.839
		c0,3.652,2.005,6.839,4.967,8.537v3.142C11.983,21.187,10.933,21,9.839,21C4.414,21,0,25.414,0,30.839
		c0,4.664,3.264,8.571,7.626,9.579C7.228,41.486,7,42.635,7,43.839c0,5.426,4.414,9.84,9.839,9.84c1.475,0,2.87-0.336,4.127-0.92
		v0.455c0,1.722,1.4,3.122,3.122,3.122h40.175c-0.294-0.638-0.464-1.312-0.522-2H24.088c-0.619,0-1.122-0.503-1.122-1.122v-1.689
		c2.259-1.805,3.712-4.577,3.712-7.686c0-3.109-1.453-5.88-3.712-7.685V18.458c0-0.619,0.503-1.122,1.122-1.122h67.756
		c0.619,0,1.122,0.503,1.122,1.122v34.756c0,0.619-0.503,1.122-1.122,1.122H81.265l0.992,0.992c0.309,0.309,0.576,0.648,0.807,1.008
		h8.78c1.722,0,3.122-1.4,3.122-3.122V18.458C94.967,16.737,93.566,15.336,91.845,15.336z M24.679,43.839
		c0,4.323-3.517,7.84-7.839,7.84S9,48.163,9,43.839C9,39.517,12.517,36,16.839,36S24.679,39.517,24.679,43.839z M25.679,9.839
		c0,0.512-0.053,1.012-0.147,1.497h-5.443c-1.721,0-3.122,1.4-3.122,3.122v3.17C13.054,17.192,10,13.867,10,9.839
		C10,5.517,13.517,2,17.839,2S25.679,5.517,25.679,9.839z M16.967,19.635v14.328c-0.018,0.014-0.036,0.027-0.055,0.041
		c-0.025,0-0.048-0.004-0.073-0.004c-0.641,0-1.266,0.066-1.873,0.184V19.249C15.608,19.445,16.278,19.574,16.967,19.635z
		 M12.967,34.797c-1.825,0.784-3.36,2.108-4.419,3.766C4.839,37.945,2,34.722,2,30.839C2,26.517,5.517,23,9.839,23
		c1.112,0,2.168,0.236,3.127,0.655V34.797z"/>
	<path fill="#FFFFFF" d="M63.682,25.888c-2.693-2.692-6.273-4.175-10.082-4.175s-7.389,1.483-10.082,4.175
		c-5.558,5.559-5.558,14.604,0,20.164c2.693,2.692,6.273,4.176,10.082,4.176s7.389-1.483,10.082-4.176
		C69.24,40.492,69.24,31.447,63.682,25.888z M54.967,43.527v1.81h-2v-1.788c-3-0.36-4.238-2.861-4.238-2.861l1.569-1.25
		c0,0,1.261,2.225,3.656,2.225c1.526,0,2.581-0.932,2.581-2.225c0-3.158-7.347-2.607-7.347-7.439c0-1.972,1.779-3.497,3.779-3.815
		v-1.846h2v1.825c1,0.169,3,0.911,3,2.713v1.462h-2v-0.933c0-0.784-0.842-1.356-2.029-1.356c-1.611,0-2.541,0.848-2.541,1.929
		c0,3.137,7.349,2.353,7.349,7.397C58.746,41.408,56.967,43.23,54.967,43.527z"/>
	<path fill="#FFFFFF" d="M82.258,55.329l-0.992-0.992h10.579c0.619,0,1.122-0.503,1.122-1.122V18.458
		c0-0.619-0.503-1.122-1.122-1.122H24.088c-0.619,0-1.122,0.503-1.122,1.122v17.697c2.259,1.804,3.712,4.576,3.712,7.685
		c0,3.109-1.453,5.881-3.712,7.686v1.689c0,0.619,0.503,1.122,1.122,1.122h39.653c0.058,0.688,0.228,1.362,0.522,2
		c0.288,0.625,0.669,1.218,1.183,1.732l7.036,7.036c1.131,1.131,2.638,1.754,4.243,1.754c1.605,0,3.112-0.623,4.243-1.754l1.29-1.29
		c1.131-1.131,1.754-2.638,1.754-4.243c0-1.166-0.333-2.279-0.947-3.235C82.834,55.977,82.567,55.638,82.258,55.329z M42.104,47.465
		c-6.338-6.339-6.338-16.653,0-22.992c3.071-3.07,7.153-4.761,11.496-4.761s8.425,1.691,11.496,4.761
		c6.18,6.18,6.316,16.13,0.445,22.499l2.678,2.678c0.745-0.713,1.719-1.112,2.759-1.112c1.071,0,2.076,0.415,2.829,1.168
		l7.035,7.035c1.56,1.56,1.56,4.098,0,5.657l-1.289,1.29c-0.754,0.753-1.758,1.168-2.828,1.168c-1.071,0-2.075-0.415-2.829-1.168
		l-7.035-7.036c-0.753-0.753-1.168-1.758-1.168-2.828c0-1.041,0.399-2.015,1.112-2.76l-2.701-2.701
		c-2.934,2.494-6.611,3.863-10.505,3.863C49.257,52.227,45.175,50.536,42.104,47.465z"/>
	<path fill="#5175B9" d="M66.805,51.066c-0.713,0.745-1.112,1.719-1.112,2.76c0,1.07,0.415,2.075,1.168,2.828l7.035,7.036
		c0.754,0.753,1.758,1.168,2.829,1.168c1.07,0,2.074-0.415,2.828-1.168l1.289-1.29c1.56-1.56,1.56-4.098,0-5.657l-7.035-7.035
		c-0.753-0.753-1.758-1.168-2.829-1.168c-1.04,0-2.014,0.398-2.759,1.112l-2.678-2.678c5.871-6.369,5.735-16.319-0.445-22.499
		c-3.071-3.07-7.153-4.761-11.496-4.761s-8.425,1.691-11.496,4.761c-6.338,6.338-6.338,16.653,0,22.992
		c3.071,3.07,7.153,4.762,11.496,4.762c3.893,0,7.571-1.369,10.505-3.863L66.805,51.066z M43.518,46.051
		c-5.558-5.56-5.558-14.604,0-20.164c2.693-2.692,6.273-4.175,10.082-4.175s7.389,1.483,10.082,4.175
		c5.559,5.559,5.559,14.604,0,20.164c-2.693,2.692-6.273,4.176-10.082,4.176S46.211,48.744,43.518,46.051z M70.979,50.54
		c0.537,0,1.039,0.207,1.415,0.582l7.035,7.035c0.78,0.78,0.78,2.049,0,2.829l-1.289,1.29c-0.751,0.751-2.08,0.749-2.829,0
		l-7.035-7.036c-0.375-0.376-0.582-0.878-0.582-1.414c0-0.537,0.206-1.039,0.582-1.414l1.289-1.29
		C69.94,50.747,70.442,50.54,70.979,50.54z"/>
	<path fill="#FFFFFF" d="M67.693,53.826c0,0.536,0.207,1.038,0.582,1.414l7.035,7.036c0.749,0.749,2.078,0.751,2.829,0l1.289-1.29
		c0.78-0.78,0.78-2.049,0-2.829l-7.035-7.035c-0.376-0.375-0.878-0.582-1.415-0.582c-0.536,0-1.038,0.207-1.414,0.582l-1.289,1.29
		C67.899,52.787,67.693,53.289,67.693,53.826z"/>
	<path fill="#FFFFFF" d="M16.839,36C12.517,36,9,39.517,9,43.839c0,4.323,3.517,7.84,7.839,7.84s7.839-3.517,7.839-7.84
		C24.679,39.517,21.162,36,16.839,36z"/>
	<path fill="#5175B9" d="M51.484,31.976c0-1.081,0.842-1.929,2.454-1.929c1.187,0,2.029,0.572,2.029,1.356v0.933h2v-1.462
		c0-1.802-2-2.544-3-2.713v-1.825h-2v1.846c-2,0.318-3.771,1.844-3.771,3.815c0,4.832,7.292,4.281,7.292,7.439
		c0,1.293-1.007,2.225-2.533,2.225c-2.395,0-3.608-2.225-3.608-2.225l-1.625,1.25c0,0,1.246,2.501,4.246,2.861v1.788h2v-1.81
		c2-0.297,3.823-2.119,3.823-4.153C58.79,34.329,51.484,35.113,51.484,31.976z"/>
</g>
</svg>
