<?xml version="1.0" encoding="utf-8"?>
<!-- Generator: Adobe Illustrator 17.1.0, SVG Export Plug-In . SVG Version: 6.00 Build 0)  -->
<!DOCTYPE svg PUBLIC "-//W3C//DTD SVG 1.1//EN" "http://www.w3.org/Graphics/SVG/1.1/DTD/svg11.dtd">
<svg version="1.1" id="Layer_1" xmlns="http://www.w3.org/2000/svg" xmlns:xlink="http://www.w3.org/1999/xlink" x="0px" y="0px"
	 viewBox="0 0 18 18" enable-background="new 0 0 18 18" xml:space="preserve">
<g>
	<path fill="#A2BAD4" d="M9,0C4.038,0,0,4.038,0,9s4.038,9,9,9s9-4.038,9-9S13.962,0,9,0z M9,16c-3.86,0-7-3.14-7-7s3.14-7,7-7
		s7,3.14,7,7S12.86,16,9,16z"/>
	<path fill="#A2BAD4" d="M10.713,5.102L8.99,7.647L8.056,6.882C7.648,6.51,7.016,6.539,6.643,6.946
		C6.271,7.354,6.3,7.987,6.708,8.359l1.738,1.499c0.012,0.011,0.027,0.014,0.039,0.024C8.495,9.891,8.5,9.904,8.511,9.913
		c0.052,0.04,0.112,0.062,0.169,0.09c0.035,0.018,0.067,0.042,0.104,0.056c0.109,0.039,0.222,0.061,0.335,0.061
		c0.143,0,0.284-0.034,0.415-0.095c0.043-0.02,0.075-0.056,0.115-0.082C9.721,9.897,9.798,9.86,9.858,9.794
		C9.87,9.781,9.873,9.765,9.883,9.752c0.008-0.01,0.021-0.013,0.029-0.024l2.386-3.409c0.336-0.438,0.254-1.065-0.184-1.402
		C11.676,4.58,11.049,4.662,10.713,5.102z"/>
</g>
</svg>
