<?xml version="1.0" encoding="utf-8"?>
<!-- Generator: Adobe Illustrator 17.1.0, SVG Export Plug-In . SVG Version: 6.00 Build 0)  -->
<!DOCTYPE svg PUBLIC "-//W3C//DTD SVG 1.1//EN" "http://www.w3.org/Graphics/SVG/1.1/DTD/svg11.dtd">
<svg version="1.1" id="Layer_1" xmlns="http://www.w3.org/2000/svg" xmlns:xlink="http://www.w3.org/1999/xlink" x="0px" y="0px"
	 viewBox="0 0 195 215.999" enable-background="new 0 0 195 215.999" xml:space="preserve">
<g>
	<path fill="none" d="M95.492,44.721c-0.154,0.087-0.323,0.13-0.492,0.13c-0.259,0-0.515-0.1-0.707-0.293
		c-0.744-0.745-2.071-1.883-3.752-3.324c-4.884-4.19-12.543-10.761-17.19-17.442C32.347,34.525,2,71.921,2,116.281
		c0,23.708,8.671,45.424,23,62.147V136.8c0-0.083,0.01-0.164,0.03-0.242c-0.083-0.123-0.144-0.262-0.165-0.413
		c-0.049-0.351,0.089-0.701,0.365-0.922L42,121.766V64.733c0-0.553,0.448-1.06,1-1.06h81.402c0.266,0,0.52,0.135,0.707,0.323
		l28.598,28.64c0.188,0.188,0.293,0.457,0.293,0.723v29.526l15.82,14.51c0.252,0.232,0.369,0.577,0.309,0.914
		c-0.025,0.137-0.083,0.262-0.158,0.374c0.019,0.077,0.029,0.157,0.029,0.239v39.508c14.329-16.723,23-38.44,23-62.148
		c0-45.467-31.88-83.617-74.439-93.242C115.124,30.707,107.423,37.971,95.492,44.721z"/>
	<path fill="#A4BDE3" d="M195,116.281c0-46.307-32.39-85.183-75.683-95.126c-0.223,0.631-0.476,1.259-0.756,1.884
		C161.12,32.664,193,70.814,193,116.281c0,23.708-8.671,45.424-23,62.148V138.92c0-0.081-0.01-0.161-0.029-0.239
		c0.075-0.113,0.133-0.237,0.158-0.374c0.061-0.337-0.057-0.682-0.309-0.914L154,122.883v2.715l13.306,12.203L154,143.243v0.095
		l-2,0.731l-34.879,12.75l-5.476,2.002l-1.794,0.656c-0.062,0.022-0.12,0.051-0.176,0.084c-5.845,3.548-12.991,3.505-20.663-0.175
		l-1.505-0.565l-5.333-2.002L44,142.488l-2-0.751v-0.093l-14.203-5.917L42,124.332v-2.565l-16.771,13.456
		c-0.275,0.221-0.414,0.571-0.365,0.922c0.022,0.152,0.083,0.29,0.165,0.413c-0.02,0.078-0.03,0.16-0.03,0.242v41.628
		c-14.329-16.723-23-38.44-23-62.147c0-44.36,30.347-81.756,71.351-92.49c-0.408-0.587-0.795-1.174-1.152-1.761
		C30.664,33.211,0,71.226,0,116.281c0,25.03,9.467,47.886,25,65.179v23.754c0,4.814,3.211,8.888,7.604,10.207
		c0.186,0.388,0.599,0.632,1.042,0.567c0.366-0.057,0.735-0.205,1.102-0.262c0.303,0.026,0.608-0.054,0.918-0.054h123.396
		c0.261,0,0.523,0.175,0.783,0.215c0.053,0.008,0.104,0.062,0.155,0.062c0.221,0,0.426-0.056,0.595-0.183
		c5.288-0.627,9.404-5.103,9.404-10.552V181.46C185.533,164.167,195,141.311,195,116.281z M159.333,213.672h-0.123
		c-20.547-3-41.555-4.663-62.463-4.663c-20.771,0-41.641,1.639-62.059,4.754c-4.319-0.488-7.688-4.105-7.688-8.548v-66.97
		l61.228,22.98c8.096,3.892,15.996,3.947,22.399,0.099L168,140.351v64.863C168,209.989,164.112,213.672,159.333,213.672z
		 M144.295,213.672H49.198c15.742-2,31.675-2.761,47.549-2.761S128.553,211.672,144.295,213.672z"/>
	<polygon fill="#FFFFFF" points="27.797,135.728 42,141.644 42,124.332 	"/>
	<polygon fill="#FFFFFF" points="167.306,137.802 154,125.599 154,143.243 	"/>
	<path fill="#FFFFFF" d="M152,94.672h-28c-0.553,0-1-0.36-1-0.912V65.672H44v76.816l38.174,14.184h34.947L152,144.069V94.672z
		 M64,114.672c-0.552,0-1-0.447-1-1c0-0.553,0.448-1,1-1h68c0.553,0,1,0.447,1,1c0,0.553-0.447,1-1,1H64z M127,122.672
		c0,0.553-0.447,1-1,1H64c-0.552,0-1-0.447-1-1s0.448-1,1-1h62C126.553,121.672,127,122.119,127,122.672z M64,94.672
		c-0.552,0-1-0.447-1-1s0.448-1,1-1h49c0.553,0,1,0.447,1,1s-0.447,1-1,1H64z M126,149.672H64c-0.552,0-1-0.447-1-1s0.448-1,1-1h62
		c0.553,0,1,0.447,1,1S126.553,149.672,126,149.672z M132,141.672H64c-0.552,0-1-0.447-1-1s0.448-1,1-1h68c0.553,0,1,0.447,1,1
		S132.553,141.672,132,141.672z M135,132.672H64c-0.552,0-1-0.447-1-1s0.448-1,1-1h71c0.553,0,1,0.447,1,1
		S135.553,132.672,135,132.672z"/>
	<path fill="#FFFFFF" d="M89.012,159.311c7.672,3.68,14.818,3.76,20.663,0.212c0.056-0.033,0.114-0.117,0.176-0.14l1.794-0.711
		H87.507L89.012,159.311z"/>
	<path fill="#5175B9" d="M153.707,92.65l-28.598-28.655c-0.188-0.188-0.441-0.323-0.707-0.323H43c-0.552,0-1,0.508-1,1.06v57.034
		v2.565v17.313v0.093l2,0.751V65.672h79V93.76c0,0.553,0.447,0.912,1,0.912h28v49.397l2-0.731v-0.095v-17.644v-2.715V93.358
		C154,93.092,153.895,92.838,153.707,92.65z M125,67.149l25.586,25.523H125V67.149z"/>
	<polygon fill="#FFFFFF" points="125,67.149 125,92.672 150.586,92.672 	"/>
	<path fill="#5175B9" d="M114,93.672c0-0.553-0.447-1-1-1H64c-0.552,0-1,0.447-1,1s0.448,1,1,1h49
		C113.553,94.672,114,94.225,114,93.672z"/>
	<path fill="#5175B9" d="M133,113.672c0-0.553-0.447-1-1-1H64c-0.552,0-1,0.447-1,1c0,0.553,0.448,1,1,1h68
		C132.553,114.672,133,114.226,133,113.672z"/>
	<path fill="#5175B9" d="M64,121.672c-0.552,0-1,0.447-1,1s0.448,1,1,1h62c0.553,0,1-0.447,1-1s-0.447-1-1-1H64z"/>
	<path fill="#5175B9" d="M135,130.672H64c-0.552,0-1,0.447-1,1s0.448,1,1,1h71c0.553,0,1-0.447,1-1S135.553,130.672,135,130.672z"/>
	<path fill="#5175B9" d="M132,139.672H64c-0.552,0-1,0.447-1,1s0.448,1,1,1h68c0.553,0,1-0.447,1-1S132.553,139.672,132,139.672z"/>
	<path fill="#5175B9" d="M126,147.672H64c-0.552,0-1,0.447-1,1s0.448,1,1,1h62c0.553,0,1-0.447,1-1S126.553,147.672,126,147.672z"/>
	<polygon fill="#5175B9" points="87.507,158.672 111.645,158.672 117.121,156.672 82.174,156.672 	"/>
	<path fill="#FFFFFF" d="M96.747,210.911c-15.874,0-31.807,0.761-47.549,2.761h95.097
		C128.553,211.672,112.621,210.911,96.747,210.911z"/>
	<path fill="#FFFFFF" d="M168,140.351l-57.373,20.973c-6.403,3.848-14.304,3.794-22.399-0.099L27,138.245v66.97
		c0,4.443,3.369,8.111,7.688,8.598c20.418-3.115,41.288-4.804,62.059-4.804c20.908,0,41.916,1.663,62.463,4.663h0.123
		c4.779,0,8.667-3.684,8.667-8.458V140.351z M115.806,182.504c-0.166,0.373-0.531,0.594-0.915,0.594
		c-0.136,0-0.273-0.027-0.405-0.086l-15.863-7.063L82.1,182.303c-0.117,0.045-0.239,0.066-0.358,0.066
		c-0.401,0-0.78-0.244-0.934-0.642c-0.198-0.516,0.06-1.095,0.575-1.293l14.655-5.636l-9.401-4.186
		c-0.505-0.225-0.731-0.816-0.508-1.322c0.225-0.505,0.817-0.731,1.32-0.508l11.23,5l11.156-4.291
		c0.512-0.197,1.093,0.06,1.292,0.576c0.198,0.516-0.06,1.095-0.575,1.293l-9.289,3.572l14.035,6.249
		C115.803,181.407,116.029,181.999,115.806,182.504z"/>
	<path fill="#FFFFFF" d="M71.356,13.677c0,8.463,13.327,19.895,20.486,26.036c1.364,1.171,2.501,2.145,3.311,2.897
		c15.587-8.959,23.49-18.692,23.49-28.933c0-6.438-5.232-11.675-11.664-11.675c-4.989,0-9.423,3.18-11.033,7.913
		c-0.138,0.406-0.519,0.678-0.946,0.678s-0.809-0.273-0.946-0.678c-1.61-4.733-6.044-7.913-11.033-7.913
		C76.589,2.002,71.356,7.239,71.356,13.677z"/>
	<path fill="#5175B9" d="M90.541,41.233c1.681,1.441,3.008,2.58,3.752,3.324C94.485,44.75,94.741,44.85,95,44.85
		c0.169,0,0.338-0.043,0.492-0.13c11.93-6.75,19.632-14.014,23.068-21.682c0.28-0.625,0.533-1.253,0.756-1.884
		c0.868-2.454,1.327-4.947,1.327-7.478c0-7.541-6.13-13.677-13.664-13.677C101.93,0,97.365,2.78,95,7.113
		C92.635,2.78,88.07,0,83.021,0c-7.534,0-13.664,6.136-13.664,13.677c0,2.649,1.099,5.493,2.842,8.352
		c0.358,0.587,0.744,1.175,1.152,1.761C77.998,30.472,85.657,37.043,90.541,41.233z M94.054,9.915
		c0.138,0.406,0.519,0.678,0.946,0.678s0.809-0.273,0.946-0.678c1.61-4.733,6.044-7.913,11.033-7.913
		c6.432,0,11.664,5.237,11.664,11.675c0,10.241-7.903,19.974-23.49,28.933c-0.81-0.752-1.946-1.727-3.311-2.897
		c-7.159-6.141-20.486-17.573-20.486-26.036c0-6.438,5.232-11.675,11.664-11.675C88.01,2.002,92.443,5.182,94.054,9.915z"/>
	<path fill="#A4BDE3" d="M115.298,181.182l-14.035-6.249l9.289-3.572c0.516-0.198,0.773-0.777,0.575-1.293
		c-0.199-0.516-0.78-0.773-1.292-0.576l-11.156,4.291l-11.23-5c-0.503-0.223-1.096,0.003-1.32,0.508
		c-0.224,0.505,0.003,1.097,0.508,1.322l9.401,4.186l-14.655,5.636c-0.516,0.198-0.773,0.777-0.575,1.293
		c0.153,0.398,0.532,0.642,0.934,0.642c0.119,0,0.241-0.021,0.358-0.066l16.523-6.355l15.863,7.063
		c0.132,0.059,0.27,0.086,0.405,0.086c0.384,0,0.749-0.221,0.915-0.594C116.029,181.999,115.803,181.407,115.298,181.182z"/>
</g>
</svg>
